<svg xmlns="http://www.w3.org/2000/svg" viewBox="0 0 1600 900" width="1600" height="900">
  <!-- ═══════════════════════════════════════════════════════════ -->
  <!-- TERRA — Earth-Based Territory Map                          -->
  <!-- Ashes of Command: The Reclamation                          -->
  <!-- Continents: North America, South America                   -->
  <!-- ═══════════════════════════════════════════════════════════ -->

  <defs>
    <!-- ─────────────────────────────────── -->
    <!-- FONTS                               -->
    <!-- ─────────────────────────────────── -->
    <style>
      @import url('https://fonts.googleapis.com/css2?family=Orbitron:wght@400;700;900&amp;display=swap');
      .territory-label { font-family: 'Orbitron', 'Consolas', monospace; fill: #ffffff; font-size: 11px; font-weight: 700; text-anchor: middle; letter-spacing: 0.5px; paint-order: stroke; stroke: rgba(0,0,0,0.7); stroke-width: 2.5px; stroke-linejoin: round; }
      .territory-label-small { font-family: 'Orbitron', 'Consolas', monospace; fill: rgba(255,255,255,0.5); font-size: 8px; font-weight: 400; text-anchor: middle; }
      .hq-label { font-family: 'Orbitron', 'Consolas', monospace; fill: #ffd700; font-size: 14px; font-weight: 900; text-anchor: middle; letter-spacing: 1px; paint-order: stroke; stroke: rgba(0,0,0,0.8); stroke-width: 3px; stroke-linejoin: round; }
      .map-title { font-family: 'Orbitron', 'Consolas', monospace; fill: rgba(255,255,255,0.6); font-size: 22px; font-weight: 900; text-anchor: end; letter-spacing: 4px; }
      .map-subtitle { font-family: 'Orbitron', 'Consolas', monospace; fill: rgba(255,255,255,0.3); font-size: 10px; font-weight: 400; text-anchor: end; letter-spacing: 2px; }
      .sea-lane-label { font-family: 'Orbitron', 'Consolas', monospace; fill: rgba(120,180,220,0.5); font-size: 7px; font-weight: 400; letter-spacing: 2px; }
      .compass-label { font-family: 'Orbitron', 'Consolas', monospace; fill: rgba(255,255,255,0.6); font-size: 9px; font-weight: 700; text-anchor: middle; }
      .scale-label { font-family: 'Orbitron', 'Consolas', monospace; fill: rgba(255,255,255,0.4); font-size: 7px; font-weight: 400; text-anchor: middle; }
    </style>

    <!-- ─────────────────────────────────── -->
    <!-- OCEAN GRADIENTS                     -->
    <!-- ─────────────────────────────────── -->
    <radialGradient id="tm-ocean-depth" cx="50%" cy="45%" r="65%" fx="48%" fy="42%">
      <stop offset="0%" stop-color="#0e2040"/>
      <stop offset="40%" stop-color="#0a1830"/>
      <stop offset="75%" stop-color="#071220"/>
      <stop offset="100%" stop-color="#050e18"/>
    </radialGradient>

    <!-- ─────────────────────────────────── -->
    <!-- TERRAIN PATTERNS                    -->
    <!-- ─────────────────────────────────── -->

    <!-- Forest: dark green dots -->
    <pattern id="pat-forest" x="0" y="0" width="8" height="8" patternUnits="userSpaceOnUse">
      <rect width="8" height="8" fill="#1a5a2a"/>
      <circle cx="2" cy="2" r="1" fill="#146622" opacity="0.7"/>
      <circle cx="6" cy="6" r="1.2" fill="#1e7030" opacity="0.6"/>
      <circle cx="5" cy="1" r="0.8" fill="#125e20" opacity="0.5"/>
    </pattern>

    <!-- Desert: tan with horizontal lines -->
    <pattern id="pat-desert" x="0" y="0" width="10" height="6" patternUnits="userSpaceOnUse">
      <rect width="10" height="6" fill="#c4a040"/>
      <line x1="0" y1="2" x2="10" y2="2" stroke="#b89030" stroke-width="0.5" opacity="0.6"/>
      <line x1="0" y1="5" x2="10" y2="5" stroke="#d4b050" stroke-width="0.3" opacity="0.4"/>
    </pattern>

    <!-- Tundra: cool gray with sparse dots -->
    <pattern id="pat-tundra" x="0" y="0" width="12" height="12" patternUnits="userSpaceOnUse">
      <rect width="12" height="12" fill="#a0b0c0"/>
      <circle cx="3" cy="3" r="0.6" fill="#8898a8" opacity="0.5"/>
      <circle cx="9" cy="8" r="0.5" fill="#b0c0d0" opacity="0.4"/>
    </pattern>

    <!-- Mountain: brown-gray with triangle marks -->
    <pattern id="pat-mountain" x="0" y="0" width="10" height="10" patternUnits="userSpaceOnUse">
      <rect width="10" height="10" fill="#7a6a5a"/>
      <polygon points="5,2 3,7 7,7" fill="#685848" opacity="0.6"/>
      <polygon points="9,5 7.5,9 10,9" fill="#8c7c6c" opacity="0.4"/>
    </pattern>

    <!-- Grassland: yellow-green stipple -->
    <pattern id="pat-grassland" x="0" y="0" width="8" height="8" patternUnits="userSpaceOnUse">
      <rect width="8" height="8" fill="#8ab648"/>
      <circle cx="1" cy="4" r="0.5" fill="#7aa63a" opacity="0.6"/>
      <circle cx="5" cy="1" r="0.4" fill="#9ac658" opacity="0.5"/>
      <circle cx="4" cy="7" r="0.6" fill="#78a236" opacity="0.4"/>
      <circle cx="7" cy="3" r="0.3" fill="#92be50" opacity="0.5"/>
    </pattern>

    <!-- Ice: very pale blue-white -->
    <pattern id="pat-ice" x="0" y="0" width="10" height="10" patternUnits="userSpaceOnUse">
      <rect width="10" height="10" fill="#e0e8f0"/>
      <line x1="0" y1="3" x2="4" y2="3" stroke="#d0d8e8" stroke-width="0.4" opacity="0.5"/>
      <line x1="6" y1="7" x2="10" y2="7" stroke="#c8d0e0" stroke-width="0.3" opacity="0.4"/>
    </pattern>

    <!-- Jungle: deep tropical green -->
    <pattern id="pat-jungle" x="0" y="0" width="8" height="8" patternUnits="userSpaceOnUse">
      <rect width="8" height="8" fill="#0d4a1a"/>
      <circle cx="2" cy="2" r="1.3" fill="#0a5518" opacity="0.6"/>
      <circle cx="6" cy="5" r="1.5" fill="#0e6020" opacity="0.5"/>
      <circle cx="4" cy="7" r="1" fill="#084010" opacity="0.7"/>
      <circle cx="7" cy="1" r="0.8" fill="#0b4c16" opacity="0.4"/>
    </pattern>

    <!-- ─────────────────────────────────── -->
    <!-- TERRITORY OVERLAYS                  -->
    <!-- ─────────────────────────────────── -->
    <!-- Blue controlled overlay for Central Command and Spaceport Alpha -->
    <linearGradient id="grad-controlled-blue" x1="0%" y1="0%" x2="100%" y2="100%">
      <stop offset="0%" stop-color="#1a4a8a" stop-opacity="0.25"/>
      <stop offset="100%" stop-color="#0a2a5a" stop-opacity="0.15"/>
    </linearGradient>

    <!-- North America terrain: tundra north → forest center → grassland/desert south -->
    <linearGradient id="grad-na-terrain" x1="0" y1="0" x2="0" y2="1">
      <stop offset="0%" stop-color="#a0b0c0"/>
      <stop offset="20%" stop-color="#8a9eae"/>
      <stop offset="35%" stop-color="#1a5a2a"/>
      <stop offset="55%" stop-color="#4a8a38"/>
      <stop offset="70%" stop-color="#8ab648"/>
      <stop offset="85%" stop-color="#c4a040"/>
      <stop offset="100%" stop-color="#b89838"/>
    </linearGradient>

    <!-- South America terrain: jungle north → grassland center → desert/tundra south -->
    <linearGradient id="grad-sa-terrain" x1="0" y1="0" x2="0" y2="1">
      <stop offset="0%" stop-color="#0d4a1a"/>
      <stop offset="30%" stop-color="#1a5a2a"/>
      <stop offset="55%" stop-color="#8ab648"/>
      <stop offset="75%" stop-color="#c4a040"/>
      <stop offset="90%" stop-color="#a0b0c0"/>
      <stop offset="100%" stop-color="#8898a8"/>
    </linearGradient>

    <!-- Europe terrain: tundra north → forest center → grassland south -->
    <linearGradient id="grad-eu-terrain" x1="0" y1="0" x2="0" y2="1">
      <stop offset="0%" stop-color="#a0b0c0"/>
      <stop offset="20%" stop-color="#8a9eae"/>
      <stop offset="40%" stop-color="#1a5a2a"/>
      <stop offset="60%" stop-color="#4a8a38"/>
      <stop offset="80%" stop-color="#8ab648"/>
      <stop offset="100%" stop-color="#7aa63a"/>
    </linearGradient>

    <!-- Africa terrain: desert north → jungle center → grassland south -->
    <linearGradient id="grad-af-terrain" x1="0" y1="0" x2="0" y2="1">
      <stop offset="0%" stop-color="#c4a040"/>
      <stop offset="25%" stop-color="#b89030"/>
      <stop offset="45%" stop-color="#0d4a1a"/>
      <stop offset="60%" stop-color="#1a5a2a"/>
      <stop offset="75%" stop-color="#8ab648"/>
      <stop offset="90%" stop-color="#7a9a3a"/>
      <stop offset="100%" stop-color="#6a8a30"/>
    </linearGradient>

    <!-- Red contested overlay for Southern Bastion -->
    <linearGradient id="grad-contested-red" x1="0%" y1="0%" x2="100%" y2="100%">
      <stop offset="0%" stop-color="#8a1a1a" stop-opacity="0.3"/>
      <stop offset="100%" stop-color="#5a0a0a" stop-opacity="0.2"/>
    </linearGradient>

    <!-- Grey neutral overlay -->
    <linearGradient id="grad-neutral-grey" x1="0%" y1="0%" x2="100%" y2="100%">
      <stop offset="0%" stop-color="#6a6a6a" stop-opacity="0.25"/>
      <stop offset="100%" stop-color="#4a4a4a" stop-opacity="0.15"/>
    </linearGradient>

    <!-- ─────────────────────────────────── -->
    <!-- CLIP PATHS                          -->
    <!-- ─────────────────────────────────── -->

    <!-- North America landmass clip -->
    <clipPath id="clip-na">
      <use href="#path-na"/>
    </clipPath>

    <!-- South America landmass clip -->
    <clipPath id="clip-sa">
      <use href="#path-sa"/>
    </clipPath>

    <!-- Europe landmass clip -->
    <clipPath id="clip-eu">
      <use href="#path-eu"/>
    </clipPath>

    <!-- Africa landmass clip -->
    <clipPath id="clip-af">
      <use href="#path-af"/>
    </clipPath>

  </defs>

  <!-- ═══════════════════════════════════════════════════════════ -->
  <!-- OCEAN BACKGROUND                                           -->
  <!-- ═══════════════════════════════════════════════════════════ -->
  <rect width="1600" height="900" fill="#0a1830"/>
  <rect width="1600" height="900" fill="url(#tm-ocean-depth)"/>

  <!-- Subtle ocean grid lines -->
  <g opacity="0.04" stroke="#4080c0" stroke-width="0.5">
    <line x1="0" y1="150" x2="1600" y2="150"/>
    <line x1="0" y1="300" x2="1600" y2="300"/>
    <line x1="0" y1="450" x2="1600" y2="450"/>
    <line x1="0" y1="600" x2="1600" y2="600"/>
    <line x1="0" y1="750" x2="1600" y2="750"/>
    <line x1="200" y1="0" x2="200" y2="900"/>
    <line x1="400" y1="0" x2="400" y2="900"/>
    <line x1="600" y1="0" x2="600" y2="900"/>
    <line x1="800" y1="0" x2="800" y2="900"/>
    <line x1="1000" y1="0" x2="1000" y2="900"/>
    <line x1="1200" y1="0" x2="1200" y2="900"/>
    <line x1="1400" y1="0" x2="1400" y2="900"/>
  </g>

  <!-- ═══════════════════════════════════════════════════════════ -->
  <!-- NORTH AMERICA  (x:80-520, y:50-480)                       -->
  <!-- ═══════════════════════════════════════════════════════════ -->
  <g id="north-america">

    <!-- Main landmass outline -->
    <path id="path-na" d="
      M 95,128
      C 90,118 88,108 92,98
      C 96,88 108,78 118,72
      C 128,66 140,60 152,58
      C 164,56 178,58 188,62
      C 198,66 210,64 222,60
      C 234,56 248,54 262,52
      C 276,50 292,52 306,56
      C 320,60 332,58 346,62
      C 358,66 368,72 378,80
      C 385,86 392,92 398,100
      C 404,108 412,118 420,125
      C 428,132 436,128 444,130
      C 450,132 456,140 452,150
      C 448,158 440,162 438,170
      C 436,178 440,184 444,190
      C 448,196 445,200 440,204
      C 435,208 430,210 428,216
      C 426,222 430,228 435,232
      C 440,236 438,240 434,244
      C 430,248 426,252 424,258
      C 422,264 420,270 418,276
      C 416,282 414,288 412,294
      C 410,300 406,306 402,312
      C 398,318 396,324 394,330
      C 392,336 390,342 388,348
      C 386,352 382,355 378,354
      C 374,353 370,350 366,346
      C 362,342 356,338 350,336
      C 344,334 336,332 328,330
      C 320,328 312,330 306,332
      C 300,334 292,338 284,342
      C 276,346 268,348 262,352
      C 256,356 250,362 246,370
      C 242,378 240,386 242,394
      C 244,400 250,404 258,402
      C 264,400 272,398 278,402
      C 284,406 286,412 282,418
      C 278,424 272,428 266,432
      C 260,436 256,442 258,448
      C 260,454 266,458 272,460
      C 278,462 282,466 284,472
      C 286,476 290,480 295,478
      C 300,476 296,470 290,464
      C 286,460 280,454 276,448
      C 274,444 270,438 268,432
      C 272,430 278,428 282,420
      C 280,414 274,408 266,406
      C 258,404 252,398 248,392
      C 244,386 238,380 234,374
      C 230,368 224,362 218,358
      C 212,354 206,352 200,358
      C 194,364 188,370 182,368
      C 178,366 174,362 170,356
      C 168,350 164,342 160,334
      C 158,326 155,318 152,310
      C 150,302 148,294 146,286
      C 144,280 140,276 136,274
      C 132,272 128,268 124,264
      C 120,260 118,254 116,248
      C 114,242 114,236 114,228
      C 114,220 114,212 116,206
      C 118,200 118,194 116,188
      C 114,182 112,176 110,168
      C 108,160 106,152 104,146
      C 102,140 98,134 95,128
      Z
    " fill="url(#grad-na-terrain)" stroke="#2a4a6a" stroke-width="1.5" stroke-linejoin="round"/>

    <!-- Hudson Bay (water cutout) -->
    <path d="
      M 290,108
      C 296,104 304,102 312,104
      C 320,106 328,108 334,114
      C 340,120 344,128 346,136
      C 348,144 348,152 344,160
      C 340,168 334,174 326,178
      C 318,182 310,182 302,178
      C 294,174 288,168 284,160
      C 280,152 278,142 278,132
      C 278,122 282,114 290,108
      Z
    " fill="#0a1830" stroke="#1a3050" stroke-width="0.8"/>

    <!-- Great Lakes -->
    <g id="great-lakes" fill="#0e2040" stroke="#1a3050" stroke-width="0.5">
      <!-- Lake Superior -->
      <ellipse cx="310" cy="212" rx="18" ry="8" transform="rotate(-15,310,212)"/>
      <!-- Lake Michigan -->
      <ellipse cx="324" cy="230" rx="5" ry="16" transform="rotate(5,324,230)"/>
      <!-- Lake Huron -->
      <ellipse cx="338" cy="220" rx="8" ry="14" transform="rotate(10,338,220)"/>
      <!-- Lake Erie -->
      <ellipse cx="358" cy="232" rx="14" ry="4" transform="rotate(-8,358,232)"/>
      <!-- Lake Ontario -->
      <ellipse cx="374" cy="224" rx="10" ry="4" transform="rotate(-5,374,224)"/>
    </g>

    <!-- ─────────────────────────────────── -->
    <!-- TERRITORY: Northern Garrison        -->
    <!-- Canada + Alaska — tundra/forest     -->
    <!-- ─────────────────────────────────── -->
    <path d="
      M 95,128
      C 90,118 88,108 92,98
      C 96,88 108,78 118,72
      C 128,66 140,60 152,58
      C 164,56 178,58 188,62
      C 198,66 210,64 222,60
      C 234,56 248,54 262,52
      C 276,50 292,52 306,56
      C 320,60 332,58 346,62
      C 358,66 368,72 378,80
      C 385,86 392,92 398,100
      C 404,108 412,118 420,125
      C 428,132 436,128 444,130
      C 450,132 456,140 452,150
      C 448,158 440,162 438,170
      C 436,178 440,184 444,190
      L 440,195
      L 116,195
      C 114,188 114,182 112,176
      C 110,168 108,160 106,152
      C 104,146 100,138 95,128
      Z
    " fill="none" stroke="#ffffff" stroke-width="1" stroke-dasharray="6,4" opacity="0.5"/>

    <text x="260" y="110" class="territory-label">NORTHERN GARRISON</text>
    <text x="260" y="122" class="territory-label-small">Canada + Alaska — Tundra/Forest</text>

    <!-- ─────────────────────────────────── -->
    <!-- TERRITORY: Central Command (HQ)     -->
    <!-- Eastern US / Great Lakes            -->
    <!-- ─────────────────────────────────── -->
    <path d="
      M 300,195
      L 440,195
      C 440,204 435,208 430,210
      C 428,216 426,222 430,228
      C 435,232 440,236 438,240
      C 434,244 430,248 426,252
      C 424,258 422,264 420,270
      C 418,276 416,282 414,288
      C 412,294 410,300 406,306
      C 402,312 398,318 396,324
      C 394,330 392,336 390,342
      C 388,348 386,352 382,355
      C 378,354 374,353 370,350
      C 366,346 356,338 350,336
      C 344,334 336,332 328,330
      C 320,328 312,330 306,332
      L 300,332
      L 300,195
      Z
    " fill="url(#grad-controlled-blue)" stroke="#4488cc" stroke-width="1.2" opacity="0.7"/>

    <!-- HQ Gold Star -->
    <polygon points="350,268 353,276 362,277 356,283 357,292 350,288 343,292 344,283 338,277 347,276"
             fill="#ffd700" stroke="#b8960a" stroke-width="0.8" opacity="0.9"/>
    <text x="350" y="306" class="hq-label">CENTRAL COMMAND</text>
    <text x="350" y="318" class="territory-label-small">HQ — Eastern US / Great Lakes</text>

    <!-- ─────────────────────────────────── -->
    <!-- TERRITORY: Civilian Sector          -->
    <!-- Western US + Mexico                 -->
    <!-- ─────────────────────────────────── -->
    <path d="
      M 116,195
      L 300,195
      L 300,332
      L 306,332
      C 300,334 292,338 284,342
      C 276,346 268,348 262,352
      C 256,356 250,362 246,370
      C 242,378 240,386 242,394
      C 244,400 250,404 258,402
      C 264,400 272,398 278,402
      C 284,406 286,412 282,418
      C 278,424 272,428 266,432
      C 260,436 256,442 258,448
      C 260,454 266,458 272,460
      C 278,462 282,466 284,472
      C 286,476 290,480 295,478
      C 300,476 296,470 290,464
      C 286,460 280,454 276,448
      C 274,444 270,438 268,432
      C 272,430 278,428 282,420
      C 280,414 274,408 266,406
      C 258,404 252,398 248,392
      C 244,386 238,380 234,374
      C 230,368 224,362 218,358
      C 212,354 206,352 200,358
      C 194,364 188,370 182,368
      C 178,366 174,362 170,356
      C 168,350 164,342 160,334
      C 158,326 155,318 152,310
      C 150,302 148,294 146,286
      C 144,280 140,276 136,274
      C 132,272 128,268 124,264
      C 120,260 118,254 116,248
      C 114,242 114,236 114,228
      C 114,220 114,212 116,206
      L 116,195
      Z
    " fill="none" stroke="#888888" stroke-width="0.8" stroke-dasharray="4,3" opacity="0.4"/>

    <text x="200" y="280" class="territory-label">CIVILIAN SECTOR</text>
    <text x="200" y="292" class="territory-label-small">Western US + Mexico — Grassland/Desert</text>

    <!-- Mississippi River -->
    <path d="
      M 318,200
      C 316,210 314,220 312,232
      C 310,244 308,256 310,268
      C 312,280 314,290 312,302
      C 310,314 308,322 306,330
    " fill="none" stroke="#1a4a7a" stroke-width="1.2" opacity="0.7"/>

  </g>

  <!-- ═══════════════════════════════════════════════════════════ -->
  <!-- SOUTH AMERICA  (x:280-520, y:500-870)                     -->
  <!-- ═══════════════════════════════════════════════════════════ -->
  <g id="south-america">

    <!-- Main landmass outline -->
    <path id="path-sa" d="
      M 310,508
      C 318,504 328,500 340,498
      C 352,496 366,498 380,502
      C 394,506 408,508 420,510
      C 432,512 444,514 456,518
      C 468,522 480,526 490,532
      C 498,538 506,544 512,552
      C 516,558 518,566 516,574
      C 514,582 510,590 506,598
      C 502,606 498,614 494,622
      C 490,630 486,640 482,650
      C 478,660 474,670 468,680
      C 462,690 456,700 450,710
      C 444,720 438,728 432,736
      C 426,744 420,752 416,760
      C 412,768 408,776 404,784
      C 400,792 396,800 392,808
      C 388,816 384,824 380,830
      C 376,836 372,842 370,848
      C 368,854 366,858 364,862
      C 362,866 358,868 354,866
      C 350,864 346,858 344,850
      C 342,842 340,834 338,826
      C 336,818 334,810 332,802
      C 330,794 328,786 326,778
      C 324,770 322,762 320,754
      C 318,746 316,738 314,730
      C 312,722 310,714 308,706
      C 306,698 304,688 302,678
      C 300,668 298,656 296,644
      C 294,632 294,620 294,608
      C 294,596 294,584 294,572
      C 294,560 292,548 290,538
      C 288,530 290,522 294,516
      C 298,512 304,510 310,508
      Z
    " fill="url(#grad-sa-terrain)" stroke="#2a4a6a" stroke-width="1.5" stroke-linejoin="round"/>

    <!-- Andes mountain strip (thin western overlay) -->
    <path d="
      M 296,516
      C 294,530 292,548 294,572
      C 294,596 294,620 296,644
      C 298,656 300,668 302,678
      C 304,688 306,698 308,706
      C 310,714 312,722 314,730
      C 316,738 318,746 320,754
      C 322,762 324,770 326,778
      C 328,786 330,794 332,802
      C 334,810 336,818 338,826
      C 340,834 342,842 344,850
      L 338,848
      C 336,840 334,832 332,822
      C 330,812 328,802 326,792
      C 324,782 322,772 320,762
      C 318,752 316,742 314,734
      C 312,726 310,718 308,710
      C 306,702 304,692 302,682
      C 300,672 298,660 296,648
      C 294,636 292,622 290,608
      C 288,594 288,580 288,566
      C 288,552 286,540 286,530
      C 286,520 290,514 296,516
      Z
    " fill="url(#pat-mountain)" opacity="0.4"/>

    <!-- Spaceport Alpha territory overlay (entire continent) -->
    <path d="
      M 310,508
      C 318,504 328,500 340,498
      C 352,496 366,498 380,502
      C 394,506 408,508 420,510
      C 432,512 444,514 456,518
      C 468,522 480,526 490,532
      C 498,538 506,544 512,552
      C 516,558 518,566 516,574
      C 514,582 510,590 506,598
      C 502,606 498,614 494,622
      C 490,630 486,640 482,650
      C 478,660 474,670 468,680
      C 462,690 456,700 450,710
      C 444,720 438,728 432,736
      C 426,744 420,752 416,760
      C 412,768 408,776 404,784
      C 400,792 396,800 392,808
      C 388,816 384,824 380,830
      C 376,836 372,842 370,848
      C 368,854 366,858 364,862
      C 362,866 358,868 354,866
      C 350,864 346,858 344,850
      C 342,842 340,834 338,826
      C 336,818 334,810 332,802
      C 330,794 328,786 326,778
      C 324,770 322,762 320,754
      C 318,746 316,738 314,730
      C 312,722 310,714 308,706
      C 306,698 304,688 302,678
      C 300,668 298,656 296,644
      C 294,632 294,620 294,608
      C 294,596 294,584 294,572
      C 294,560 292,548 290,538
      C 288,530 290,522 294,516
      C 298,512 304,510 310,508
      Z
    " fill="url(#grad-controlled-blue)" opacity="0.5"/>

    <!-- Amazon River (thick blue line) -->
    <path d="
      M 296,558
      C 310,555 328,554 348,556
      C 368,558 390,556 410,552
      C 430,548 448,540 468,530
      C 480,524 490,520 498,518
    " fill="none" stroke="#1a5a9a" stroke-width="2" opacity="0.6" stroke-linecap="round"/>

    <!-- Amazon tributaries -->
    <path d="M 340,540 C 342,546 344,550 348,556" fill="none" stroke="#1a5a9a" stroke-width="1" opacity="0.4"/>
    <path d="M 360,572 C 358,566 356,562 352,558" fill="none" stroke="#1a5a9a" stroke-width="1" opacity="0.4"/>
    <path d="M 380,540 C 378,546 374,550 370,556" fill="none" stroke="#1a5a9a" stroke-width="0.8" opacity="0.35"/>

    <!-- Territory label -->
    <text x="400" y="600" class="territory-label">SPACEPORT ALPHA</text>
    <text x="400" y="612" class="territory-label-small">South America — Controlled Territory</text>

    <!-- Spaceport marker -->
    <polygon points="400,574 403,582 412,583 406,589 407,598 400,594 393,598 394,589 388,583 397,582"
             fill="#4488cc" stroke="#2266aa" stroke-width="0.8" opacity="0.8"/>

  </g>

  <!-- ═══════════════════════════════════════════════════════════ -->
  <!-- LAND BRIDGE (Central America to South America)            -->
  <!-- ═══════════════════════════════════════════════════════════ -->
  <path d="
    M 295,478
    C 298,484 302,490 306,496
    C 308,500 310,504 310,508
  " fill="#7a8a48" stroke="#2a4a6a" stroke-width="1" opacity="0.8"/>

  <!-- ═══════════════════════════════════════════════════════════ -->
  <!-- MAP TITLE AND DECORATIONS                                  -->
  <!-- ═══════════════════════════════════════════════════════════ -->
  <text x="1560" y="40" class="map-title">TERRA</text>
  <text x="1560" y="56" class="map-subtitle">STRATEGIC TERRITORY MAP — WESTERN HEMISPHERE</text>

  <!-- Compass Rose (bottom-right) -->
  <g transform="translate(1500,820)" opacity="0.5">
    <circle cx="0" cy="0" r="25" fill="none" stroke="#4080a0" stroke-width="0.5"/>
    <line x1="0" y1="-22" x2="0" y2="22" stroke="#4080a0" stroke-width="0.8"/>
    <line x1="-22" y1="0" x2="22" y2="0" stroke="#4080a0" stroke-width="0.8"/>
    <polygon points="0,-20 -4,-8 4,-8" fill="#4080a0"/>
    <text x="0" y="-28" class="compass-label">N</text>
  </g>

  <!-- ═══════════════════════════════════════════════════════════ -->
  <!-- EUROPE (x:620-860, y:50-340)                               -->
  <!-- ═══════════════════════════════════════════════════════════ -->
  <g id="europe">

    <!-- British Isles -->
    <path id="path-british-isles" d="
      M 620,130 C 622,118 628,108 634,102 C 638,98 640,94 638,90
      C 636,86 632,88 630,94 C 628,100 624,106 620,112
      C 618,118 616,126 618,134 C 620,138 624,140 626,136
      C 628,132 628,128 626,126 Z
    " fill="url(#grad-eu-terrain)" stroke="#2a4a6a" stroke-width="1.2"/>

    <!-- Ireland -->
    <ellipse cx="608" cy="120" rx="8" ry="14" fill="url(#pat-forest)" stroke="#2a4a6a" stroke-width="1" transform="rotate(-5,608,120)"/>

    <!-- European mainland -->
    <path id="path-eu" d="
      M 650,68
      C 656,62 664,58 674,56 C 686,54 698,58 706,64
      C 710,68 716,72 722,74 C 730,76 738,74 746,70
      C 754,66 762,64 770,66 C 778,68 784,74 788,80
      C 794,88 800,94 808,98 C 816,102 824,104 830,108
      C 836,112 842,118 846,126 C 850,134 852,142 850,150
      C 848,158 844,164 838,170 C 832,176 826,180 820,184
      C 814,188 808,192 802,198 C 796,204 790,208 784,214
      C 778,220 772,224 768,230 C 764,236 762,242 760,248
      C 758,254 756,260 752,266 C 748,272 742,276 736,278
      C 730,280 724,278 718,274 C 712,270 706,268 700,266
      C 694,264 688,262 682,260 C 676,258 672,256 668,252
      C 664,248 660,244 656,240 C 654,236 652,232 648,228
      C 644,224 640,220 636,218 C 632,216 628,216 626,220
      C 624,224 622,228 620,232 C 618,236 618,240 620,244
      C 622,248 626,250 630,252 C 634,254 636,258 634,262
      C 632,266 628,268 624,266 C 620,264 618,258 620,252
      C 622,246 620,240 616,234 C 612,228 610,222 612,216
      C 614,210 618,204 624,200 C 630,196 636,194 640,188
      C 644,182 646,176 646,168 C 646,160 644,152 642,144
      C 640,136 640,128 642,120 C 644,112 646,104 646,96
      C 646,88 646,80 648,74 C 650,70 650,68 650,68 Z
    " fill="url(#grad-eu-terrain)" stroke="#2a4a6a" stroke-width="1.5" stroke-linejoin="round"/>

    <!-- Scandinavian peninsula -->
    <path d="
      M 706,64 C 710,54 716,46 724,40 C 732,34 738,30 744,28
      C 750,26 754,30 752,36 C 750,42 746,48 742,54
      C 738,60 734,64 730,68 C 726,72 720,74 716,72 C 712,70 708,66 706,64 Z
    " fill="url(#pat-tundra)" stroke="#2a4a6a" stroke-width="1.2"/>

    <!-- Italian boot peninsula -->
    <path d="
      M 718,274 C 722,280 726,288 728,296 C 730,304 728,312 724,318
      C 720,322 716,318 714,312 C 712,306 714,298 716,290
      C 718,282 718,276 718,274 Z
    " fill="url(#pat-grassland)" stroke="#2a4a6a" stroke-width="1"/>

    <!-- Iberian peninsula -->
    <path d="
      M 636,218 C 628,222 622,230 618,240 C 616,248 614,256 616,264
      C 618,270 624,274 630,276 C 636,278 642,276 648,272
      C 654,268 658,262 660,254 C 662,246 660,240 656,234
      C 652,228 646,222 640,218 C 638,218 636,218 636,218 Z
    " fill="url(#pat-grassland)" stroke="#2a4a6a" stroke-width="1"/>

    <!-- Greek peninsula -->
    <path d="
      M 762,266 C 766,274 768,282 766,290 C 764,296 760,300 756,296
      C 752,292 754,284 758,276 C 760,270 762,266 762,266 Z
    " fill="url(#pat-grassland)" stroke="#2a4a6a" stroke-width="0.8"/>

    <!-- Alps mountain range -->
    <path d="M 680,240 C 695,234 710,230 725,234 C 732,236 738,240 742,246"
      fill="none" stroke="#7a6a5a" stroke-width="2.5" opacity="0.6" stroke-linecap="round"/>

    <!-- Mediterranean Sea hint -->
    <path d="M 632,278 C 660,290 690,298 720,300 C 740,302 758,298 770,290"
      fill="none" stroke="#0e2040" stroke-width="3" opacity="0.3"/>

    <!-- Territory: Comm Array (Western Europe) -->
    <text x="640" y="180" class="territory-label">COMM ARRAY</text>
    <text x="640" y="192" class="territory-label-small">Western Europe — Controlled</text>

    <!-- Territory: Shield Generator (Eastern Europe) -->
    <text x="790" y="140" class="territory-label">SHIELD GENERATOR</text>
    <text x="790" y="152" class="territory-label-small">Eastern Europe — Controlled</text>

    <!-- Territory border between West/East Europe -->
    <line x1="720" y1="68" x2="720" y2="278" stroke="#ffffff" stroke-width="1" stroke-dasharray="6,4" opacity="0.4"/>

  </g>

  <!-- ═══════════════════════════════════════════════════════════ -->
  <!-- AFRICA (x:640-920, y:320-780)                              -->
  <!-- ═══════════════════════════════════════════════════════════ -->
  <g id="africa">

    <path id="path-af" d="
      M 670,320
      C 682,316 696,314 712,314 C 728,314 744,316 758,318
      C 772,320 786,322 798,326 C 810,330 820,336 828,342
      C 836,348 842,356 848,366 C 854,376 858,386 860,398
      C 862,410 862,422 860,434 C 858,446 854,458 850,470
      C 846,482 842,494 838,506 C 834,518 830,530 826,542
      C 822,554 816,566 810,576 C 804,586 796,596 788,604
      C 780,612 772,620 764,628 C 756,636 748,642 740,648
      C 732,654 724,660 718,668 C 712,676 708,684 706,692
      C 704,700 702,708 700,716 C 698,724 696,730 692,736
      C 688,742 684,746 678,748 C 672,750 666,748 662,742
      C 658,736 656,728 654,720 C 652,712 650,702 648,692
      C 646,682 644,672 642,662 C 640,652 640,642 640,632
      C 640,622 640,612 642,602 C 644,592 646,582 648,572
      C 650,562 652,552 652,542 C 652,532 652,522 650,512
      C 648,502 646,492 644,482 C 642,472 640,462 638,452
      C 636,442 636,432 636,422 C 636,412 638,402 640,392
      C 642,382 644,372 648,362 C 652,352 656,344 662,336
      C 666,328 668,322 670,320 Z
    " fill="url(#grad-af-terrain)" stroke="#2a4a6a" stroke-width="1.5" stroke-linejoin="round"/>

    <!-- Sahara desert overlay (northern Africa) -->
    <rect x="636" y="314" width="230" height="120" fill="url(#pat-desert)" opacity="0.3" clip-path="url(#clip-af)"/>

    <!-- Congo jungle overlay (central Africa) -->
    <rect x="636" y="520" width="230" height="140" fill="url(#pat-jungle)" opacity="0.25" clip-path="url(#clip-af)"/>

    <!-- Horn of Africa -->
    <path d="
      M 848,366 C 860,362 872,360 884,364 C 892,368 896,374 892,382
      C 888,388 882,390 876,388 C 870,386 864,382 858,378
      C 854,374 850,370 848,366 Z
    " fill="url(#pat-desert)" stroke="#2a4a6a" stroke-width="1"/>

    <!-- Madagascar -->
    <path d="
      M 880,620 C 884,612 888,604 892,600 C 896,596 900,598 902,606
      C 904,614 904,624 902,634 C 900,644 896,652 892,658
      C 888,662 884,660 882,654 C 880,646 878,636 880,626 C 880,622 880,620 880,620 Z
    " fill="url(#pat-jungle)" stroke="#2a4a6a" stroke-width="1"/>

    <!-- Nile River -->
    <path d="
      M 810,580 C 808,560 804,540 800,520 C 796,500 792,480 790,460
      C 788,440 788,420 790,400 C 792,380 796,360 800,340
      C 802,330 806,322 810,318
    " fill="none" stroke="#1a5a9a" stroke-width="1.5" opacity="0.5" stroke-linecap="round"/>

    <!-- Territory: Western Fortifications (neutral) — West Africa -->
    <text x="680" y="440" class="territory-label">WESTERN FORTIFICATIONS</text>
    <text x="680" y="452" class="territory-label-small">West Africa — Neutral</text>

    <!-- Territory: Southern Bastion (contested) — Central/East Africa -->
    <text x="780" y="540" class="territory-label">SOUTHERN BASTION</text>
    <text x="780" y="552" class="territory-label-small">Central Africa — Contested</text>

    <!-- Contested pulse ring -->
    <circle cx="780" cy="560" r="12" fill="none" stroke="#cc3333" stroke-width="1.5" opacity="0.6">
      <animate attributeName="r" values="12;20;12" dur="2s" repeatCount="indefinite"/>
      <animate attributeName="opacity" values="0.6;0.1;0.6" dur="2s" repeatCount="indefinite"/>
    </circle>

    <!-- Territory: Underground Network (neutral) — Southern Africa + Madagascar -->
    <text x="720" y="700" class="territory-label">UNDERGROUND NETWORK</text>
    <text x="720" y="712" class="territory-label-small">Southern Africa — Neutral</text>

    <!-- Territory borders within Africa -->
    <line x1="640" y1="480" x2="860" y2="480" stroke="#ffffff" stroke-width="1" stroke-dasharray="6,4" opacity="0.35"/>
    <line x1="640" y1="620" x2="860" y2="620" stroke="#ffffff" stroke-width="1" stroke-dasharray="6,4" opacity="0.35"/>

    <!-- Neutral overlay — West Africa -->
    <rect x="636" y="314" width="130" height="166" fill="url(#grad-neutral-grey)" opacity="0.4" clip-path="url(#clip-af)"/>

    <!-- Contested overlay — Central/East -->
    <rect x="636" y="480" width="230" height="140" fill="url(#grad-contested-red)" opacity="0.5" clip-path="url(#clip-af)"/>

    <!-- Neutral overlay — Southern Africa -->
    <rect x="636" y="620" width="230" height="140" fill="url(#grad-neutral-grey)" opacity="0.4" clip-path="url(#clip-af)"/>

  </g>

  <!-- ═══════════════════════════════════════════════════════════ -->
  <!-- ASIA (x:860-1450, y:40-520)                                -->
  <!-- ═══════════════════════════════════════════════════════════ -->
  <g id="asia">

    <!-- Add Asia gradients inline -->
    <defs>
      <linearGradient id="grad-as-terrain" x1="0" y1="0" x2="0" y2="1">
        <stop offset="0%" stop-color="#a0b0c0"/>
        <stop offset="15%" stop-color="#1a5a2a"/>
        <stop offset="35%" stop-color="#8ab648"/>
        <stop offset="55%" stop-color="#c4a040"/>
        <stop offset="70%" stop-color="#7a6a5a"/>
        <stop offset="85%" stop-color="#0d4a1a"/>
        <stop offset="100%" stop-color="#8ab648"/>
      </linearGradient>
      <clipPath id="clip-as">
        <use href="#path-as"/>
      </clipPath>
    </defs>

    <!-- Main Asian landmass -->
    <path id="path-as" d="
      M 860,98
      C 870,90 882,82 896,76 C 910,70 926,66 942,64
      C 958,62 974,62 990,64 C 1006,66 1022,70 1038,74
      C 1054,78 1070,80 1086,78 C 1102,76 1118,72 1134,70
      C 1150,68 1166,68 1182,72 C 1198,76 1212,82 1226,88
      C 1240,94 1252,100 1264,108 C 1276,116 1286,124 1294,134
      C 1302,144 1308,154 1312,166 C 1316,178 1318,190 1320,202
      C 1322,214 1324,226 1328,238 C 1332,250 1338,260 1344,270
      C 1350,280 1354,290 1356,302 C 1358,314 1356,326 1352,338
      C 1348,350 1342,360 1334,368 C 1326,376 1316,382 1306,386
      C 1296,390 1286,394 1276,400 C 1266,406 1258,414 1252,424
      C 1246,434 1242,444 1236,452 C 1230,460 1222,466 1212,468
      C 1202,470 1192,468 1182,464 C 1172,460 1162,456 1152,452
      C 1142,448 1132,446 1122,446 C 1112,446 1102,448 1092,452
      C 1082,456 1072,462 1064,468 C 1056,474 1048,480 1040,486
      C 1032,492 1022,496 1012,498 C 1002,500 992,500 982,498
      C 972,496 962,492 952,486 C 942,480 934,474 926,466
      C 918,458 912,450 906,440 C 900,430 896,420 892,410
      C 888,400 886,390 884,380 C 882,370 882,360 884,350
      C 886,340 888,330 890,320 C 892,314 890,308 886,302
      C 882,296 876,292 870,288 C 866,284 862,278 860,270
      C 858,262 856,252 856,242 C 856,232 856,222 858,212
      C 860,202 862,192 862,182 C 862,172 860,162 858,152
      C 856,142 856,132 858,122 C 860,112 860,104 860,98 Z
    " fill="url(#grad-as-terrain)" stroke="#2a4a6a" stroke-width="1.5" stroke-linejoin="round"/>

    <!-- Siberian tundra overlay (north) -->
    <rect x="856" y="40" width="500" height="120" fill="url(#pat-tundra)" opacity="0.25" clip-path="url(#clip-as)"/>

    <!-- Gobi/Central Asian desert -->
    <rect x="1050" y="200" width="200" height="100" fill="url(#pat-desert)" opacity="0.25" clip-path="url(#clip-as)"/>

    <!-- Himalayan mountain range -->
    <path d="M 1000,300 C 1030,290 1060,285 1090,288 C 1120,291 1150,298 1180,310"
      fill="none" stroke="#7a6a5a" stroke-width="3.5" opacity="0.7" stroke-linecap="round"/>
    <!-- Snow caps on Himalayas -->
    <g fill="#e0e8f0" opacity="0.6">
      <polygon points="1020,295 1017,302 1023,302"/>
      <polygon points="1050,290 1047,297 1053,297"/>
      <polygon points="1080,288 1077,295 1083,295"/>
      <polygon points="1110,290 1107,297 1113,297"/>
      <polygon points="1140,295 1137,302 1143,302"/>
    </g>

    <!-- SE Asian jungle overlay -->
    <rect x="1050" y="380" width="200" height="120" fill="url(#pat-jungle)" opacity="0.2" clip-path="url(#clip-as)"/>

    <!-- Indian subcontinent -->
    <path d="
      M 1000,310 C 1008,320 1012,332 1014,346 C 1016,360 1014,374 1010,388
      C 1006,402 1000,414 992,424 C 984,432 976,436 970,430
      C 966,424 964,414 966,402 C 968,390 972,378 976,366
      C 980,354 984,342 988,330 C 992,318 996,312 1000,310 Z
    " fill="url(#pat-jungle)" stroke="#2a4a6a" stroke-width="1"/>

    <!-- Arabian peninsula -->
    <path d="
      M 880,302 C 874,312 870,324 872,336 C 874,348 880,358 888,366
      C 896,372 904,374 910,370 C 916,366 918,358 916,348
      C 914,338 910,328 904,320 C 898,312 892,306 886,302
      C 884,300 880,302 880,302 Z
    " fill="url(#pat-desert)" stroke="#2a4a6a" stroke-width="1"/>

    <!-- Korean peninsula -->
    <path d="
      M 1310,172 C 1314,180 1316,190 1314,200 C 1312,208 1308,212 1304,208
      C 1300,204 1302,196 1306,186 C 1308,178 1310,172 1310,172 Z
    " fill="url(#pat-grassland)" stroke="#2a4a6a" stroke-width="0.8"/>

    <!-- Japan (3 islands) -->
    <g fill="url(#pat-forest)" stroke="#2a4a6a" stroke-width="0.8">
      <path d="M 1350,140 C 1356,134 1362,130 1368,132 C 1372,134 1370,140 1366,148
        C 1362,156 1356,162 1350,166 C 1344,168 1340,164 1342,158 C 1344,152 1348,144 1350,140 Z"/>
      <path d="M 1340,170 C 1344,168 1348,170 1350,176 C 1352,182 1348,188 1344,190
        C 1340,192 1336,188 1336,182 C 1336,176 1338,172 1340,170 Z"/>
      <ellipse cx="1332" cy="198" rx="6" ry="10" transform="rotate(15,1332,198)"/>
    </g>

    <!-- Territory: Orbital Defense HQ — Eastern Siberia -->
    <text x="1100" y="100" class="territory-label">ORBITAL DEFENSE HQ</text>
    <text x="1100" y="112" class="territory-label-small">Eastern Siberia — Controlled</text>

    <!-- Territory: Mountain Pass (contested) — Central Asia/Himalayas -->
    <text x="1050" y="260" class="territory-label">MOUNTAIN PASS</text>
    <text x="1050" y="272" class="territory-label-small">Central Asia — Contested</text>
    <circle cx="1050" cy="280" r="10" fill="none" stroke="#cc3333" stroke-width="1.5" opacity="0.6">
      <animate attributeName="r" values="10;18;10" dur="2s" repeatCount="indefinite"/>
      <animate attributeName="opacity" values="0.6;0.1;0.6" dur="2s" repeatCount="indefinite"/>
    </circle>

    <!-- Territory: Industrial District — China/East Asia -->
    <text x="1250" y="230" class="territory-label">INDUSTRIAL DISTRICT</text>
    <text x="1250" y="242" class="territory-label-small">East Asia — Controlled</text>

    <!-- Territory: Power Grid Hub — India/South Asia -->
    <text x="980" y="370" class="territory-label">POWER GRID HUB</text>
    <text x="980" y="382" class="territory-label-small">South Asia — Controlled</text>

    <!-- Territory: Research Complex — Japan/Korea/Pacific -->
    <text x="1340" y="160" class="territory-label">RESEARCH COMPLEX</text>
    <text x="1340" y="172" class="territory-label-small">Japan/Pacific — Controlled</text>

    <!-- Territory: Harbor District — Southeast Asia -->
    <text x="1120" y="460" class="territory-label">HARBOR DISTRICT</text>
    <text x="1120" y="472" class="territory-label-small">SE Asia — Controlled</text>

    <!-- Territory borders within Asia -->
    <line x1="860" y1="160" x2="1360" y2="160" stroke="#ffffff" stroke-width="1" stroke-dasharray="6,4" opacity="0.3"/>
    <line x1="860" y1="300" x2="1360" y2="300" stroke="#ffffff" stroke-width="1" stroke-dasharray="6,4" opacity="0.3"/>
    <line x1="1180" y1="80" x2="1180" y2="500" stroke="#ffffff" stroke-width="1" stroke-dasharray="6,4" opacity="0.3"/>

    <!-- Yangtze River -->
    <path d="M 1170,310 C 1200,290 1230,270 1260,260 C 1280,254 1300,250 1320,248"
      fill="none" stroke="#1a5a9a" stroke-width="1.2" opacity="0.5" stroke-linecap="round"/>

  </g>

  <!-- ═══════════════════════════════════════════════════════════ -->
  <!-- AUSTRALIA (x:1150-1420, y:560-760)                         -->
  <!-- ═══════════════════════════════════════════════════════════ -->
  <g id="australia">

    <defs>
      <linearGradient id="grad-au-terrain" x1="0" y1="0" x2="0" y2="1">
        <stop offset="0%" stop-color="#8ab648"/>
        <stop offset="30%" stop-color="#c4a040"/>
        <stop offset="60%" stop-color="#d4a854"/>
        <stop offset="80%" stop-color="#c4a040"/>
        <stop offset="100%" stop-color="#8ab648"/>
      </linearGradient>
      <clipPath id="clip-au">
        <use href="#path-au"/>
      </clipPath>
    </defs>

    <path id="path-au" d="
      M 1200,590
      C 1214,584 1230,580 1248,578 C 1266,576 1284,578 1300,582
      C 1316,586 1330,592 1342,600 C 1354,608 1364,618 1370,630
      C 1376,642 1380,654 1382,668 C 1384,682 1382,696 1378,708
      C 1374,720 1366,730 1356,738 C 1346,746 1334,750 1322,752
      C 1310,754 1298,752 1286,748 C 1274,744 1264,738 1254,730
      C 1244,722 1236,714 1228,704 C 1220,694 1214,684 1208,672
      C 1202,660 1198,648 1194,636 C 1190,624 1188,612 1190,602
      C 1192,594 1196,590 1200,590 Z
    " fill="url(#grad-au-terrain)" stroke="#2a4a6a" stroke-width="1.5" stroke-linejoin="round"/>

    <!-- Outback desert overlay (center) -->
    <rect x="1220" y="610" width="120" height="100" fill="url(#pat-desert)" opacity="0.3" clip-path="url(#clip-au)"/>

    <!-- Tasmania -->
    <ellipse cx="1350" cy="770" rx="10" ry="12" fill="url(#pat-forest)" stroke="#2a4a6a" stroke-width="0.8"/>

    <!-- New Zealand (2 islands far right) -->
    <g fill="url(#pat-forest)" stroke="#2a4a6a" stroke-width="0.8">
      <ellipse cx="1440" cy="700" rx="5" ry="16" transform="rotate(-20,1440,700)"/>
      <ellipse cx="1446" cy="730" rx="4" ry="12" transform="rotate(-15,1446,730)"/>
    </g>

    <!-- Territory: Supply Depot (neutral) — Australia -->
    <text x="1290" y="660" class="territory-label">SUPPLY DEPOT</text>
    <text x="1290" y="672" class="territory-label-small">Australia — Neutral</text>

    <!-- Neutral overlay -->
    <path d="
      M 1200,590 C 1214,584 1230,580 1248,578 C 1266,576 1284,578 1300,582
      C 1316,586 1330,592 1342,600 C 1354,608 1364,618 1370,630
      C 1376,642 1380,654 1382,668 C 1384,682 1382,696 1378,708
      C 1374,720 1366,730 1356,738 C 1346,746 1334,750 1322,752
      C 1310,754 1298,752 1286,748 C 1274,744 1264,738 1254,730
      C 1244,722 1236,714 1228,704 C 1220,694 1214,684 1208,672
      C 1202,660 1198,648 1194,636 C 1190,624 1188,612 1190,602
      C 1192,594 1196,590 1200,590 Z
    " fill="url(#grad-neutral-grey)" opacity="0.4"/>

  </g>

  <!-- ═══════════════════════════════════════════════════════════ -->
  <!-- ANTARCTICA (ice strip at bottom)                           -->
  <!-- ═══════════════════════════════════════════════════════════ -->
  <g id="antarctica" opacity="0.5">
    <path d="
      M 50,870 C 150,862 300,856 500,854 C 700,852 900,854 1100,856
      C 1300,858 1450,862 1550,870 L 1600,900 L 0,900 Z
    " fill="url(#pat-ice)" stroke="#4a6a8a" stroke-width="0.5"/>
  </g>

  <!-- ═══════════════════════════════════════════════════════════ -->
  <!-- SEA ROUTES (inter-continental)                             -->
  <!-- ═══════════════════════════════════════════════════════════ -->
  <g id="sea-routes" opacity="0.4">
    <defs>
      <marker id="sea-arrow" viewBox="0 0 8 6" refX="8" refY="3" markerWidth="6" markerHeight="4" orient="auto">
        <path d="M 0,0 L 8,3 L 0,6 Z" fill="rgba(120,180,220,0.6)"/>
      </marker>
    </defs>

    <!-- Americas to Europe -->
    <path d="M 440,160 C 500,140 560,130 620,140"
      fill="none" stroke="rgba(120,180,220,0.4)" stroke-width="1" stroke-dasharray="8,4" marker-end="url(#sea-arrow)"/>
    <text x="530" y="128" class="sea-lane-label">SEA LANE ALPHA</text>

    <!-- Americas to Africa -->
    <path d="M 500,520 C 540,490 580,460 650,420"
      fill="none" stroke="rgba(120,180,220,0.4)" stroke-width="1" stroke-dasharray="8,4" marker-end="url(#sea-arrow)"/>
    <text x="570" y="468" class="sea-lane-label">SEA LANE BETA</text>

    <!-- Africa to Asia (around Horn) -->
    <path d="M 892,380 C 920,370 940,360 960,350"
      fill="none" stroke="rgba(120,180,220,0.4)" stroke-width="1" stroke-dasharray="8,4" marker-end="url(#sea-arrow)"/>
    <text x="920" y="358" class="sea-lane-label">SEA LANE GAMMA</text>

    <!-- Asia to Australia -->
    <path d="M 1100,490 C 1130,520 1160,550 1200,580"
      fill="none" stroke="rgba(120,180,220,0.4)" stroke-width="1" stroke-dasharray="8,4" marker-end="url(#sea-arrow)"/>
    <text x="1140" y="538" class="sea-lane-label">SEA LANE DELTA</text>
  </g>

  <!-- ═══════════════════════════════════════════════════════════ -->
  <!-- VIGNETTE BORDER                                            -->
  <!-- ═══════════════════════════════════════════════════════════ -->
  <rect width="1600" height="900" fill="none" stroke="rgba(0,180,255,0.15)" stroke-width="2" rx="4"/>

  <!-- Update map subtitle for full world -->
  <text x="1560" y="72" class="map-subtitle">FULL STRATEGIC TERRITORY OVERVIEW</text>

</svg>